<svg xmlns="http://www.w3.org/2000/svg" version="1.1" xmlns:xlink="http://www.w3.org/1999/xlink" xmlns:svgjs="http://svgjs.dev/svgjs" width="1440" height="560" preserveAspectRatio="none" viewBox="0 0 1440 560"><g mask="url(&quot;#SvgjsMask15516&quot;)" fill="none"><rect width="1440" height="560" x="0" y="0" fill="rgba(253, 255, 245, 1)"></rect><circle r="46.666666666666664" cx="463.91" cy="335.29" stroke="#037b0b" stroke-width="2.26"></circle><rect width="84" height="84" clip-path="url(&quot;#SvgjsClipPath15517&quot;)" x="338.22" y="460.88" fill="url(&quot;#SvgjsPattern15518&quot;)" transform="rotate(93.3, 380.22, 502.88)"></rect><path d="M1378.81 170.37a5.6 5.6 0 1 0 9.41-6.08 5.6 5.6 0 1 0-9.41 6.08zM1392.25 161.69a5.6 5.6 0 1 0 9.41-6.08 5.6 5.6 0 1 0-9.41 6.08zM1405.69 153.01a5.6 5.6 0 1 0 9.41-6.08 5.6 5.6 0 1 0-9.41 6.08zM1419.13 144.33a5.6 5.6 0 1 0 9.41-6.08 5.6 5.6 0 1 0-9.41 6.08zM1360.61 201.17a5.6 5.6 0 1 0 9.41-6.07 5.6 5.6 0 1 0-9.41 6.07zM1374.05 192.49a5.6 5.6 0 1 0 9.41-6.07 5.6 5.6 0 1 0-9.41 6.07zM1387.49 183.81a5.6 5.6 0 1 0 9.41-6.08 5.6 5.6 0 1 0-9.41 6.08zM1400.93 175.13a5.6 5.6 0 1 0 9.41-6.08 5.6 5.6 0 1 0-9.41 6.08zM1342.41 231.98a5.6 5.6 0 1 0 9.41-6.08 5.6 5.6 0 1 0-9.41 6.08zM1355.85 223.3a5.6 5.6 0 1 0 9.41-6.08 5.6 5.6 0 1 0-9.41 6.08zM1369.29 214.61a5.6 5.6 0 1 0 9.41-6.07 5.6 5.6 0 1 0-9.41 6.07zM1382.73 205.93a5.6 5.6 0 1 0 9.41-6.07 5.6 5.6 0 1 0-9.41 6.07z" stroke="rgba(4, 217, 255, 1)" stroke-width="1"></path><circle r="87.99720904814967" cx="107.28" cy="515.04" stroke="rgba(4, 217, 255, 1)" stroke-width="1.92" stroke-dasharray="3, 2"></circle><rect width="168" height="168" clip-path="url(&quot;#SvgjsClipPath15519&quot;)" x="1193.95" y="-71.16" fill="url(&quot;#SvgjsPattern15520&quot;)" transform="rotate(73.97, 1277.95, 12.84)"></rect><rect width="336" height="336" clip-path="url(&quot;#SvgjsClipPath15521&quot;)" x="470.23" y="233.45" fill="url(&quot;#SvgjsPattern15522&quot;)" transform="rotate(286.33, 638.23, 401.45)"></rect><path d="M439.88 349.26L443 361.68 431.56 367.45 434.68 379.87 423.24 385.63 426.36 398.05 414.92 403.82" stroke="#d3b714" stroke-width="2.87" stroke-dasharray="4, 4"></path><path d="M1048.45 431.05L1040.15 421.3 1047.84 411.06 1039.54 401.31 1047.23 391.07 1038.93 381.32 1046.62 371.08M1056.45 430.81L1048.15 421.06 1055.84 410.82 1047.54 401.07 1055.23 390.83 1046.93 381.08 1054.62 370.84M1064.44 430.56L1056.14 420.81 1063.83 410.57 1055.53 400.82 1063.22 390.58 1054.92 380.83 1062.61 370.59" stroke="rgba(4, 217, 255, 1)" stroke-width="1" stroke-dasharray="3, 2"></path><rect width="216.96" height="216.96" clip-path="url(&quot;#SvgjsClipPath15523&quot;)" x="6.19" y="177.18" fill="url(&quot;#SvgjsPattern15524&quot;)" transform="rotate(159.81, 114.67, 285.66)"></rect><path d="M454.75 554.73 L368.36 417.12L524.885826017759 372.594173982241z" stroke="#d3b714" stroke-width="1" stroke-dasharray="3, 2"></path><rect width="200.32" height="200.32" clip-path="url(&quot;#SvgjsClipPath15525&quot;)" x="174.37" y="158.24" fill="url(&quot;#SvgjsPattern15526&quot;)" transform="rotate(332.2, 274.53, 258.4)"></rect><path d="M218.93 223.43 L188.13 284.86L244.5573531727764 295.1723531727764z" stroke="#d3b714" stroke-width="2.87" stroke-dasharray="3, 2"></path></g><defs><mask id="SvgjsMask15516"><rect width="1440" height="560" fill="#ffffff"></rect></mask><pattern x="0" y="0" width="6" height="6" patternUnits="userSpaceOnUse" id="SvgjsPattern15518"><path d="M3 1L3 5M1 3L5 3" stroke="#d3b714" fill="none" stroke-width="1"></path></pattern><clipPath id="SvgjsClipPath15517"><circle r="21" cx="380.22" cy="502.88"></circle></clipPath><pattern x="0" y="0" width="168" height="6" patternUnits="userSpaceOnUse" id="SvgjsPattern15520"><rect width="168" height="3" x="0" y="0" fill="#037b0b"></rect><rect width="168" height="3" x="0" y="3" fill="rgba(0, 0, 0, 0)"></rect></pattern><clipPath id="SvgjsClipPath15519"><circle r="42" cx="1277.95" cy="12.84"></circle></clipPath><pattern x="0" y="0" width="6" height="6" patternUnits="userSpaceOnUse" id="SvgjsPattern15522"><path d="M3 1L3 5M1 3L5 3" stroke="#d3b714" fill="none" stroke-width="1"></path></pattern><clipPath id="SvgjsClipPath15521"><circle r="84" cx="638.23" cy="401.45"></circle></clipPath><pattern x="0" y="0" width="216.96" height="13.56" patternUnits="userSpaceOnUse" id="SvgjsPattern15524"><rect width="216.96" height="6.78" x="0" y="0" fill="rgba(4, 217, 255, 1)"></rect><rect width="216.96" height="6.78" x="0" y="6.78" fill="rgba(0, 0, 0, 0)"></rect></pattern><clipPath id="SvgjsClipPath15523"><circle r="54.24" cx="114.67" cy="285.66"></circle></clipPath><pattern x="0" y="0" width="12.52" height="12.52" patternUnits="userSpaceOnUse" id="SvgjsPattern15526"><path d="M6.26 1L6.26 11.52M1 6.26L11.52 6.26" stroke="rgba(4, 217, 255, 1)" fill="none" stroke-width="3.3"></path></pattern><clipPath id="SvgjsClipPath15525"><circle r="50.08" cx="274.53" cy="258.4"></circle></clipPath></defs></svg>